# xmcd CD database file
#
# Track frame offsets:
#	150
#	60563
#	137205
#	199060
#	247372
#
# Disc length: 3975 seconds
#
# Revision: 0
# Processed by: cddbd v1.5.2PL0 Copyright (c) Steve Scherf et al.
# Submitted via: CDex 1.70beta2
#
DISCID=4c0f8505
DTITLE=Tadeusz Nesterowicz - trumpet, A. Wendt - t.sax, J.Glowczewski - a.sax, Jerzy Kaczmarek - keyboard, T.Wilczynski - bass, K.Olejnik-drums - Tadeusz Nesterowicz Sextet
DYEAR=1999
DGENRE=Jazz
TTITLE0=Summertime
TTITLE1=Radosc z nowego zycia
TTITLE2=Cantelope Island
TTITLE3=Nigdy nie przemija dobra rzecz
TTITLE4=Poszukaj znajdz
EXTD=YEAR: 1999
EXTT0=
EXTT1=
EXTT2=
EXTT3=
EXTT4=
PLAYORDER=
